<svg width="380" height="380" xmlns="http://www.w3.org/2000/svg" xmlns:xlink="http://www.w3.org/1999/xlink" overflow="hidden"><g transform="translate(-450 -170)"><rect x="451" y="171" width="378" height="378" fill="#FFFFFF" fill-opacity="0"/><path d="M601 360C601 338.461 618.461 321 640 321 661.539 321 679 338.461 679 360 679 381.539 661.539 399 640 399 618.461 399 601 381.539 601 360Z" fill="#FEE695" fill-rule="evenodd"/><path d="M603.609 333.177C605.791 304.458 601.644 240.187 619.414 216.363 637.202 192.539 685.184 189.432 692.479 214.141 699.79 238.834 656.938 308.535 664.049 322.084 668.313 329.101 703.354 290.909 728.053 281.988 752.752 273.083 769.557 280.016 779.433 295.353 789.326 310.707 795.438 344.538 777.468 358.789 759.481 373.04 685.967 360.109 689.531 366.574 693.095 373.04 778.051 376.581 795.238 391.05 812.443 405.518 793.456 426.217 775.486 438.898 757.499 451.578 724.289 465.144 705.336 454.469 686.366 443.793 685.034 377.935 680.687 385.486 676.324 393.054 694.694 466.247 683.635 492.293 672.576 518.339 635.436 532.59 625.36 515.666 615.267 498.758 638.934 415.308 634.004 412.635 629.074 409.978 619.248 489.185 600.661 502.3 582.075 515.432 538.589 494.765 540.371 473.397 542.153 452.029 611.853 405.067 605.724 397.95 599.595 390.832 535.042 448.237 509.743 437.779 484.445 427.32 467.274 355.431 483.062 343.185 498.868 330.955 584.056 385.486 588.786 376.581 593.533 367.677 510.742 325.609 506.795 298.694 502.831 271.763 550.247 225.468 569.034 241.941 587.804 258.414 586.555 342.683 603.942 375.395 621.33 408.091 650.509 399.319 662.583 392.453 680.371 381.844 681.47 358.154 675.124 342.349 668.779 326.545 641.265 311.074 619.265 327.113 605.524 337.103 613.369 364.302 608.239 364.519 603.109 364.736 601.444 361.896 603.609 333.177Z" fill="#C65F10" fill-rule="evenodd"/></g></svg>